<svg xmlns="http://www.w3.org/2000/svg" version="1.1" xmlns:xlink="http://www.w3.org/1999/xlink" xmlns:svgjs="http://svgjs.dev/svgjs" width="1000" height="750" viewBox="0 0 1000 750"><rect width="1000" height="750" fill="#333366"></rect><g transform="matrix(0.834,0,0,0.834,82.49454545454546,115.4193570850203)"><svg viewBox="0 0 396 247" data-background-color="#333366" preserveAspectRatio="xMidYMid meet" height="623" width="1000" xmlns="http://www.w3.org/2000/svg" xmlns:xlink="http://www.w3.org/1999/xlink"><g id="tight-bounds" transform="matrix(1,0,0,1,0.2400000000000091,-0.09999999999999432)"><svg viewBox="0 0 395.52 247.2" height="247.2" width="395.52"><g><svg></svg></g><g><svg viewBox="0 0 395.52 247.2" height="247.2" width="395.52"><g transform="matrix(1,0,0,1,39.55199999999999,92.6987984400316)"><svg viewBox="0 0 316.416 61.80240311993679" height="61.80240311993679" width="316.416"><g><svg viewBox="0 0 316.416 61.80240311993679" height="61.80240311993679" width="316.416"><g><svg viewBox="0 0 316.416 61.80240311993679" height="61.80240311993679" width="316.416"><g><svg viewBox="0 0 316.416 61.80240311993679" height="61.80240311993679" width="316.416"><g><svg viewBox="0 0 316.416 61.80240311993679" height="61.80240311993679" width="316.416"><g><svg viewBox="0 0 316.416 33.3332631024493" height="33.3332631024493" width="316.416"><g transform="matrix(1,0,0,1,0,0)"><svg width="316.416" viewBox="1.0299999713897705 -37.599998474121094 370.7699890136719 39.05999755859375" height="33.3332631024493" data-palette-color="#fcf7f7"><path d="M1.03-18.26L1.03-18.26Q1.03-21.63 1.78-24.44 2.54-27.25 3.8-29.2 5.05-31.15 6.82-32.67 8.59-34.18 10.47-35.1 12.35-36.01 14.51-36.6 16.67-37.18 18.55-37.39 20.43-37.6 22.36-37.6L22.36-37.6Q23.78-37.6 25.13-37.48 26.49-37.35 28.19-37.05 29.88-36.74 31.36-36.11 32.84-35.47 34.19-34.56 35.55-33.64 36.55-32.19 37.55-30.74 37.99-28.91L37.99-28.91Q38.11-28.2 38.48-24.9L38.48-24.9Q38.38-24.17 36.91-24.17L36.91-24.17Q34.81-24.17 30.81-24.27 26.81-24.37 24.8-24.37L24.8-24.37Q24.51-24.46 24.34-24.76 24.17-25.05 24.11-25.39 24.05-25.73 23.91-26.12 23.78-26.51 23.57-26.82 23.36-27.12 22.84-27.33 22.31-27.54 21.53-27.54L21.53-27.54Q20.51-27.54 19.7-27.19 18.9-26.83 18.38-26.32 17.87-25.81 17.5-24.93 17.14-24.05 16.96-23.33 16.77-22.61 16.67-21.5 16.58-20.39 16.56-19.75 16.55-19.12 16.55-18.07L16.55-18.07Q16.55-17.75 16.58-17.29 16.6-16.82 16.6-16.65L16.6-16.65 16.6-15.92Q16.6-15.14 16.63-14.62 16.65-14.11 16.76-13.31 16.87-12.5 17.07-11.95 17.26-11.4 17.64-10.78 18.02-10.16 18.57-9.78 19.12-9.4 19.95-9.14 20.78-8.89 21.83-8.89L21.83-8.89Q24.54-8.89 26.27-9.42L26.27-9.42 26.27-12.4 25.2-12.4 25.2-12.35 23.44-12.35Q23.24-12.35 22.74-12.33 22.24-12.3 21.92-12.3L21.92-12.3 21.04-13.28 21.04-20.02Q21.04-20.65 21.92-21.39L21.92-21.39 23.68-21.39Q25.51-21.39 28.13-21.34 30.74-21.29 32.13-21.29L32.13-21.29 34.08-21.29Q35.5-21.29 36.29-21.26 37.08-21.24 38.06-21.03 39.04-20.83 39.36-20.41L39.36-20.41Q39.36-17.21 39.21-11.08 39.06-4.96 39.06-2.2L39.06-2.2Q39.06-2.12 39.09-1.97 39.11-1.81 39.11-1.71L39.11-1.71 39.11-1.17Q38.28-0.2 33.69 0.54 29.1 1.27 25.98 1.27L25.98 1.27 25.34 1.27Q24.66 1.27 23.32 1.37 21.97 1.46 21.29 1.46L21.29 1.46Q11.45 1.46 6.24-3.8 1.03-9.06 1.03-18.26ZM62.01-6.05L54.49-6.05Q54.32-5.49 54.16-4.58 54-3.66 53.87-3.14 53.73-2.61 53.42-2.04 53.1-1.46 52.45-1.2 51.8-0.93 50.78-0.93L50.78-0.93 40.23-0.93 40.23-1.76Q41.53-5.64 44-13.67 46.48-21.7 47.85-25.83L47.85-25.83 47.85-25.78Q48.68-28.15 50.29-33.2L50.29-33.2Q50.31-33.25 50.36-33.33L50.36-33.33Q50.58-33.69 50.78-33.89L50.78-33.89 63.96-33.79Q67.33-33.79 67.67-33.2L67.67-33.2 67.67-32.57Q67.72-32.35 68.21-31.45L68.21-31.45Q70.58-24.19 71.68-20.9L71.68-20.9 71.68-20.61Q71.77-19.9 72.12-18.99 72.46-18.09 72.93-17.05 73.41-16.02 73.61-15.43L73.61-15.43 74.58-11.91Q75.44-9.08 77.1-4.35L77.1-4.35 77.1-4.39 77.1-3.91Q77.17-3.56 77.46-2.98 77.76-2.39 77.83-2.15L77.83-2.15Q77.83-1.46 77.55-1.27 77.27-1.07 76.46-1.07L76.46-1.07 65.13-1.07Q64.72-1.12 64.6-1.15 64.48-1.17 64.22-1.25 63.96-1.32 63.85-1.44 63.74-1.56 63.72-1.76L63.72-1.76 62.79-5.47Q62.69-5.93 62.6-5.99 62.5-6.05 62.01-6.05L62.01-6.05ZM55.66-14.65L55.66-14.75 55.66-14.65ZM61.03-17.68L61.03-17.68Q60.89-18.36 60.61-19.89 60.32-21.41 60.06-22.55 59.79-23.68 59.47-24.66L59.47-24.66 59.47-25.83Q59.27-26.34 58.79-26.56L58.79-26.56 58.79-26.51Q58.2-26.39 57.61-23.24L57.61-23.24 57.61-22.07Q57.57-21.9 57.39-21.75 57.22-21.61 57.22-21.58L57.22-21.58Q56.42-18.02 55.91-15.82L55.91-15.82Q55.91-15.58 55.78-14.97 55.66-14.36 55.66-14.26L55.66-14.26 61.72-14.26Q61.72-14.89 61.28-16.55L61.28-16.55 61.28-17.09Q61.25-17.16 61.14-17.37 61.03-17.58 61.03-17.68ZM94.72-33.5L97.21-33.5Q97.38-33.54 97.76-33.58 98.14-33.62 98.24-33.64L98.24-33.64 101.14-18.77 104.95-33.69 122.11-33.69Q122.8-33.69 122.8-30.81L122.8-30.81 122.8-2.05Q122.75-1.66 122.58-1.42 122.41-1.17 122.08-1.09 121.75-1 121.56-0.99 121.38-0.98 120.94-0.98L120.94-0.98Q119.4-0.98 116.27-0.93 113.13-0.88 111.57-0.88L111.57-0.88Q110.35-1.64 110.35-6.49L110.35-6.49Q110.35-7.71 110.4-9.68 110.44-11.65 110.44-12.6L110.44-12.6 110.44-14.75Q110.44-14.92 110.42-15.3 110.4-15.67 110.4-15.87L110.4-15.87Q110.4-16.7 110.49-18.55L110.49-18.55 110.49-16.7Q110.15-15.26 109.17-12.3 108.2-9.35 107.86-7.91L107.86-7.91 106.39-1.66Q106-0.98 103.95-0.98L103.95-0.98Q102.95-0.98 101.35-1.03 99.75-1.07 98.92-1.07L98.92-1.07Q98.68-1.07 98.09-1.05 97.5-1.03 97.36-1.03L97.36-1.03Q96.58-1.03 96.24-1.22 95.89-1.42 95.75-2L95.75-2Q93.45-12.18 92.57-16.41L92.57-16.41 91.69-20.61Q91.35-13.5 91.35-5.57L91.35-5.57 91.35-1.27 79.83-1.27Q79.83-1.42 79.9-1.9 79.98-2.39 79.98-2.44L79.98-2.44Q79.78-7.13 79.78-14.01L79.78-14.01Q79.78-16.09 79.76-19.54 79.73-23 79.73-24.32L79.73-24.32 79.73-32.96Q79.73-33.28 79.83-33.44 79.93-33.59 80.32-33.89L80.32-33.89 82.56-33.89Q83.78-33.89 84.32-33.94L84.32-33.94Q86.79-33.94 90.31-33.72 93.84-33.5 94.72-33.5L94.72-33.5ZM110.49-18.75L110.49-18.7 110.49-18.75ZM127.39-1.81L127.39-31.54Q127.39-33.01 127.51-33.25L127.51-33.25Q127.73-33.59 128.22-33.59L128.22-33.59 128.8-33.59Q129.19-33.59 129.34-33.54L129.34-33.54 130.61-33.54Q133.07-33.54 138.07-33.67 143.06-33.79 145.55-33.79L145.55-33.79 152.04-33.79Q152.68-33.72 152.68-33.15L152.68-33.15 152.68-25Q152.65-24.85 152.59-24.74 152.53-24.63 152.49-24.6 152.46-24.56 152.26-24.43 152.07-24.29 151.99-24.22L151.99-24.22 140.67-24.22 140.67-21.19 141.74-21.19Q143.16-21.19 146.06-21.29 148.97-21.39 150.53-21.39L150.53-21.39Q151.21-21.39 151.46-21.12 151.7-20.85 151.7-20.36L151.7-20.36Q151.7-20.24 151.65-19.95 151.6-19.65 151.6-19.53L151.6-19.53 151.6-18.6Q151.6-18.51 151.63-18.2 151.65-17.9 151.65-17.68L151.65-17.68 151.65-16.99Q151.65-16.46 151.7-15.92 151.75-15.38 151.75-14.99L151.75-14.99 151.75-14.36Q151.63-14.06 151.56-13.96 151.48-13.87 151.31-13.87L151.31-13.87 151.31-13.92Q150.41-13.92 148.2-13.79 145.99-13.67 144.67-13.67L144.67-13.67 140.76-13.67 140.76-10.55Q140.96-10.55 141.35-10.52 141.74-10.5 141.94-10.5L141.94-10.5Q143.03-10.5 145.18-10.57 147.33-10.64 148.28-10.64L148.28-10.64 151.41-10.64Q152.68-10.64 153.02-10.35L153.02-10.35Q153.14-10.21 153.22-10.06L153.22-10.06 153.22-2.25Q153.22-1.73 153.02-1.46 152.82-1.2 152.29-1.17L152.29-1.17 128.12-1.17 127.39-1.81ZM156.04-0.98L156.04-33.59 160.59-33.59Q162.69-33.59 167.3-33.69 171.91-33.79 174.21-33.79L174.21-33.79Q176.19-33.79 177.91-33.57 179.63-33.35 181.3-32.76 182.97-32.18 184.16-31.27 185.34-30.37 186.07-28.89 186.81-27.42 186.81-25.49L186.81-25.49Q186.81-22.83 185.56-20.95 184.32-19.07 181.73-17.77L181.73-17.77Q182.75-17.33 183.51-16.63 184.27-15.92 184.67-15.41 185.07-14.89 185.45-13.68 185.83-12.48 185.9-12.1 185.98-11.72 186.22-10.23L186.22-10.23Q186.29-9.89 186.32-9.72L186.32-9.72Q186.42-8.74 187.15-6.14 187.88-3.54 187.88-2.15L187.88-2.15Q187.88-1.27 187.34-1.27L187.34-1.27Q185.88-1.27 182.91-1.25 179.95-1.22 178.51-1.22L178.51-1.22Q177.92-1.27 176.75-1.27L176.75-1.27 175.09-1.27Q174.6-1.42 174.14-2.78 173.67-4.15 173.48-5.86L173.48-5.86 172.94-10.21Q172.79-10.74 172.71-10.97 172.62-11.21 172.4-11.54 172.18-11.87 171.8-11.99 171.43-12.11 170.84-12.11L170.84-12.11 169.72-12.11 169.72-2.34Q169.72-2.27 169.72-2.11 169.72-1.95 169.72-1.89 169.72-1.83 169.72-1.71 169.72-1.59 169.69-1.53 169.67-1.46 169.64-1.37 169.62-1.27 169.58-1.23 169.55-1.2 169.48-1.14 169.42-1.07 169.34-1.05 169.25-1.03 169.14-1 169.03-0.98 168.89-0.98L168.89-0.98 156.04-0.98ZM169.86-20.7L169.86-20.7Q169.91-20.65 170.01-20.5 170.11-20.34 170.2-20.24 170.3-20.14 170.4-20.12L170.4-20.12Q171.13-20.12 171.87-20.28 172.6-20.43 173.37-20.8 174.14-21.17 174.61-21.92 175.09-22.68 175.09-23.73L175.09-23.73Q175.09-26.27 170.2-26.27L170.2-26.27Q169.72-26.15 169.72-25.88L169.72-25.88 169.72-24.95Q169.72-24.24 169.79-22.83 169.86-21.41 169.86-20.7ZM205.31-3.32L205.31-3.32 205.31-36.18 226.4-36.91Q228.35-36.91 230.06-36.67 231.77-36.43 233.52-35.75 235.26-35.08 236.5-34.02 237.73-32.96 238.51-31.2 239.29-29.44 239.29-27.15L239.29-27.15Q239.29-24.1 237.95-22.2 236.61-20.31 233.92-18.85L233.92-18.85Q237.07-17.97 238.72-15.81 240.37-13.65 240.37-10.35L240.37-10.35Q240.37-7.91 239.44-5.97 238.51-4.03 237.05-2.81 235.58-1.59 233.6-0.78 231.63 0.02 229.68 0.35 227.74 0.68 225.72 0.68L225.72 0.68Q224.55 0.68 222.19 0.63 219.83 0.59 218.64 0.59L218.64 0.59Q211.85 0.59 206.19 0.78L206.19 0.78Q205.38-0.51 205.31-3.32ZM219.32-28.03L219.32-28.03Q219.32-26.93 219.39-24.76 219.47-22.58 219.47-21.48L219.47-21.48Q219.47-21.02 220.05-20.95L220.05-20.95Q220.4-21 221.24-21.11 222.08-21.22 222.57-21.29 223.06-21.36 223.75-21.64 224.45-21.92 224.84-22.31 225.23-22.71 225.52-23.45 225.82-24.19 225.82-25.2L225.82-25.2Q225.82-28.91 220.69-28.91L220.69-28.91Q219.66-28.74 219.49-28.56L219.49-28.56Q219.32-28.37 219.32-28.03ZM219.76-10.3L219.76-9.42Q219.76-7.62 219.96-7.62L219.96-7.62 220.74-7.62Q221.69-7.62 222.38-7.68 223.08-7.74 223.89-7.98 224.69-8.23 225.18-8.65 225.67-9.08 226.01-9.86 226.35-10.64 226.35-11.72L226.35-11.72Q226.35-12.33 226.23-12.84 226.11-13.35 225.84-13.72 225.57-14.09 225.31-14.36 225.06-14.62 224.58-14.81 224.11-14.99 223.8-15.1 223.5-15.21 222.89-15.28 222.28-15.36 222.01-15.38 221.74-15.41 221.08-15.44 220.42-15.48 220.25-15.48L220.25-15.48 220.25-14.55Q220.22-14.28 219.99-12.74 219.76-11.21 219.76-10.3L219.76-10.3ZM243.44-27.93L243.44-27.88Q243.34-28.37 243.34-30.66L243.34-30.66Q243.34-33.3 243.83-33.79L243.83-33.79 257.11-33.79 257.11-13.28Q257.11-10.11 258.97-10.11L258.97-10.11Q259.75-10.11 260.26-10.8 260.77-11.5 260.77-12.45L260.77-12.45 260.77-16.06Q260.92-26.76 260.92-26.86L260.92-26.86Q260.92-31.1 260.82-33.01L260.82-33.01Q260.82-33.69 261.51-33.98L261.51-33.98 275.08-33.98 275.08-30.18Q274.76-20.92 274.69-18.26L274.69-18.26 274.69-16.75Q274.69-16.46 274.67-15.97 274.64-15.48 274.64-15.28L274.64-15.28Q274.64-14.45 274.69-14.11L274.69-14.11 274.69-12.21Q274.69-8.81 274.01-7.32L274.01-7.32 274.01-7.23Q273.22-5.4 271.76-4.06 270.3-2.73 268.42-1.99 266.54-1.25 264.56-0.92 262.58-0.59 260.38-0.59L260.38-0.59Q259.7-0.59 259.36-0.73L259.36-0.73 258.77-0.73Q258.77-0.49 258.04-0.49L258.04-0.49 258.04-0.44Q257.5-0.42 254.91-0.68L254.91-0.68 253.79-0.68Q252.25-0.85 250.82-1.37 249.4-1.88 248.05-2.82 246.71-3.76 245.7-5.05 244.68-6.35 244.05-8.2 243.42-10.06 243.34-12.26L243.34-12.26Q243.37-13.53 243.35-15.77 243.34-18.02 243.37-19.86 243.39-21.7 243.49-23.44L243.49-23.44 243.49-24.12Q243.49-24.24 243.51-24.51 243.54-24.78 243.54-24.9L243.54-24.9Q243.54-25.27 243.49-26 243.44-26.73 243.44-27.1L243.44-27.1 243.44-27.93ZM279.03-0.98L279.03-33.59 283.57-33.59Q285.67-33.59 290.29-33.69 294.9-33.79 297.2-33.79L297.2-33.79Q299.17-33.79 300.9-33.57 302.62-33.35 304.29-32.76 305.96-32.18 307.15-31.27 308.33-30.37 309.06-28.89 309.79-27.42 309.79-25.49L309.79-25.49Q309.79-22.83 308.55-20.95 307.3-19.07 304.72-17.77L304.72-17.77Q305.74-17.33 306.5-16.63 307.26-15.92 307.66-15.41 308.06-14.89 308.44-13.68 308.82-12.48 308.89-12.1 308.96-11.72 309.21-10.23L309.21-10.23Q309.28-9.89 309.31-9.72L309.31-9.72Q309.4-8.74 310.14-6.14 310.87-3.54 310.87-2.15L310.87-2.15Q310.87-1.27 310.33-1.27L310.33-1.27Q308.87-1.27 305.9-1.25 302.93-1.22 301.49-1.22L301.49-1.22Q300.91-1.27 299.74-1.27L299.74-1.27 298.08-1.27Q297.59-1.42 297.12-2.78 296.66-4.15 296.46-5.86L296.46-5.86 295.93-10.21Q295.78-10.74 295.7-10.97 295.61-11.21 295.39-11.54 295.17-11.87 294.79-11.99 294.41-12.11 293.83-12.11L293.83-12.11 292.7-12.11 292.7-2.34Q292.7-2.27 292.7-2.11 292.7-1.95 292.7-1.89 292.7-1.83 292.7-1.71 292.7-1.59 292.68-1.53 292.66-1.46 292.63-1.37 292.61-1.27 292.57-1.23 292.53-1.2 292.47-1.14 292.41-1.07 292.33-1.05 292.24-1.03 292.13-1 292.02-0.98 291.87-0.98L291.87-0.98 279.03-0.98ZM292.85-20.7L292.85-20.7Q292.9-20.65 293-20.5 293.1-20.34 293.19-20.24 293.29-20.14 293.39-20.12L293.39-20.12Q294.12-20.12 294.85-20.28 295.59-20.43 296.35-20.8 297.12-21.17 297.6-21.92 298.08-22.68 298.08-23.73L298.08-23.73Q298.08-26.27 293.19-26.27L293.19-26.27Q292.7-26.15 292.7-25.88L292.7-25.88 292.7-24.95Q292.7-24.24 292.78-22.83 292.85-21.41 292.85-20.7ZM332.11-24.12L332.11-24.12Q331.45-24.12 331.03-24.32 330.62-24.51 330.37-24.8 330.13-25.1 329.82-25.39 329.52-25.68 328.86-25.88 328.2-26.07 327.17-26.07L327.17-26.07Q326.86-26.07 326.41-26.01 325.95-25.95 325.42-25.68 324.88-25.42 324.88-25L324.88-25Q324.88-24.54 325.33-24.21 325.78-23.88 326.36-23.74 326.93-23.61 327.65-23.43 328.37-23.24 328.66-23.1L328.66-23.1 332.25-22.22Q333.84-21.78 335.11-21.29 336.38-20.8 337.81-19.96 339.24-19.12 340.19-18.09 341.14-17.07 341.77-15.52 342.41-13.96 342.41-12.11L342.41-12.11Q342.41-9.86 341.82-8.11L341.82-8.11 341.82-8.15Q341.31-6.59 340.38-5.36 339.46-4.13 338.19-3.31 336.92-2.49 335.62-1.94 334.33-1.39 332.63-1.06 330.93-0.73 329.6-0.57 328.27-0.42 326.54-0.29L326.54-0.29Q318.85-0.68 316.24-2.73L316.24-2.73 316.24-3.03Q314.02-4.69 312.95-6.64 311.89-8.59 311.7-11.04L311.7-11.04Q311.7-11.62 312.23-11.62L312.23-11.62Q312.38-11.62 312.67-11.6 312.97-11.57 313.11-11.57L313.11-11.57 315.6-11.57Q315.94-11.62 316.58-11.62L316.58-11.62 317.21-11.62Q317.41-11.62 317.56-11.57L317.56-11.57Q318.97-11.62 322.39-11.62L322.39-11.62 323.51-11.62Q324-11.62 324.27-11.33 324.54-11.04 324.7-10.61 324.86-10.18 325.06-9.75 325.27-9.33 325.81-9.03 326.34-8.74 327.22-8.74L327.22-8.74Q328.18-8.74 328.94-9.24 329.71-9.74 329.71-10.69L329.71-10.69Q329.71-11.13 329.3-11.52 328.88-11.91 328.05-12.23 327.22-12.55 326.58-12.74 325.93-12.94 324.83-13.21 323.73-13.48 323.42-13.57L323.42-13.57 321.95-13.57Q316.65-15.14 314.32-17.54 311.99-19.95 311.99-23.63L311.99-23.63Q311.99-26.07 312.9-28.03 313.82-29.98 315.32-31.23 316.82-32.47 318.85-33.31 320.88-34.16 322.98-34.51 325.08-34.86 327.32-34.86L327.32-34.86Q331.3-34.86 334.71-33.53 338.11-32.2 339.87-30.08L339.87-30.08Q340.5-29.44 340.9-28.47 341.29-27.49 341.4-26.92 341.51-26.34 341.68-25L341.68-25 340.99-24.02 336.84-24.02Q336.16-24.02 334.57-24.07 332.99-24.12 332.11-24.12ZM342.8-24.71L342.8-24.71 342.8-33.5 371.22-33.5Q371.61-33.42 371.7-33.19 371.8-32.96 371.8-32.52L371.8-32.52 371.8-24.71Q371.75-24.12 371.12-24.12L371.12-24.12 364.18-24.12 364.18-1.66Q364.18-1.64 364.16-1.54 364.14-1.44 364.14-1.42 364.14-1.39 364.11-1.32 364.09-1.25 364.06-1.22 364.04-1.2 364.01-1.14 363.99-1.07 363.95-1.06 363.92-1.05 363.85-1.01 363.79-0.98 363.73-0.95 363.67-0.93 363.59-0.92 363.5-0.9 363.4-0.88L363.4-0.88 361.84-0.88Q358.72-0.88 358.72-1.07L358.72-1.07Q358.52-1.07 358.13-1.05 357.74-1.03 357.54-1.03L357.54-1.03 355.59-1.03Q355.03-1.03 353.99-1 352.95-0.98 352.37-0.98L352.37-0.98 351-0.98 350.02-1.66 350.02-6.93Q350.05-8.35 350.23-12.99 350.41-17.63 350.41-20.31L350.41-20.31 350.41-20.95Q350.41-21.14 350.44-21.56 350.46-21.97 350.46-22.17L350.46-22.17Q350.46-22.39 350.44-23.06 350.41-23.73 350.41-23.93L350.41-23.93 344.31-23.93Q343.77-23.93 343.29-24.11 342.8-24.29 342.8-24.71Z" opacity="1" transform="matrix(1,0,0,1,0,0)" fill="#fcf7f7" class="undefined-text-0" data-fill-palette-color="primary" id="text-0"></path></svg></g></svg></g><g transform="matrix(1,0,0,1,0,41.20244652262312)"><svg viewBox="0 0 316.416 20.599956597313668" height="20.599956597313668" width="316.416"><g transform="matrix(1,0,0,1,0,0)"><svg width="316.416" viewBox="1.149999976158142 -34.93000030517578 726.9099731445312 47.33000183105469" height="20.599956597313668" data-palette-color="#ffffff"><path d="M13.73 12.4L13.73 12.4Q9.83 12.4 7.01 11.33 4.2 10.25 2.68 8.45 1.15 6.65 1.15 4.53L1.15 4.53Q1.15 1.83 3.13 0.39 5.1-1.05 8.15-1.05L8.15-1.05 11.23 0.4Q8.63 0.4 7.21 1.45 5.8 2.5 5.8 4.3L5.8 4.3Q5.8 6.18 7.85 7.39 9.9 8.6 13.73 8.6L13.73 8.6Q16.5 8.6 18.6 7.79 20.7 6.98 21.85 5.66 23 4.35 23 2.85L23 2.85Q23 1.83 22.26 1.11 21.53 0.4 20.03 0.4L20.03 0.4 11.23 0.4Q8.78 0.4 6.91-0.36 5.05-1.13 4-2.38 2.95-3.63 2.95-5.15L2.95-5.15Q2.95-6.65 3.8-7.74 4.65-8.83 6.05-9.39 7.45-9.95 9.13-9.95L9.13-9.95 10.2-8.3Q9.47-8.3 8.75-7.99 8.03-7.68 7.55-7.05 7.08-6.43 7.08-5.5L7.08-5.5Q7.08-4.42 7.99-3.71 8.9-3 11.23-3L11.23-3 20.03-3Q23.63-3 25.68-1.58 27.73-0.15 27.73 2.58L27.73 2.58Q27.73 5.05 26.03 7.3 24.33 9.55 21.19 10.98 18.05 12.4 13.73 12.4ZM14.25-7.23L14.25-7.23Q11.45-7.23 9.16-8.31 6.88-9.4 5.53-11.36 4.17-13.33 4.17-15.95L4.17-15.95Q4.17-18.6 5.53-20.56 6.88-22.53 9.16-23.61 11.45-24.7 14.25-24.7L14.25-24.7Q16.98-24.7 19.24-23.61 21.5-22.53 22.86-20.56 24.23-18.6 24.23-15.95L24.23-15.95Q24.23-13.33 22.86-11.36 21.5-9.4 19.24-8.31 16.98-7.23 14.25-7.23ZM14.25-10.58L14.25-10.58Q16.82-10.58 18.19-12.11 19.55-13.65 19.55-15.95L19.55-15.95Q19.55-18.35 18.19-19.83 16.82-21.3 14.25-21.3L14.25-21.3Q11.73-21.3 10.31-19.83 8.9-18.35 8.9-15.95L8.9-15.95Q8.9-13.65 10.31-12.11 11.73-10.58 14.25-10.58ZM22.43-20.85L22.43-20.85 20.2-21.93Q20.2-24.08 21.1-25.68 22-27.28 23.6-28.18 25.2-29.08 27.28-29.08L27.28-29.08 26.98-24.45Q24.75-24.45 23.59-23.58 22.43-22.7 22.43-20.85ZM70.74 0L66.59 0 65.99-5.53 65.99-15.55Q65.99-18.5 64.77-19.84 63.54-21.18 60.89-21.18L60.89-21.18Q59.39-21.18 58.23-20.74 57.07-20.3 56.41-19.43 55.74-18.55 55.74-17.23L55.74-17.23 50.49-17.23Q50.49-19.88 51.79-21.53 53.09-23.18 55.43-23.94 57.77-24.7 60.89-24.7L60.89-24.7Q63.82-24.7 66.04-23.74 68.27-22.78 69.51-20.73 70.74-18.68 70.74-15.43L70.74-15.43 70.74 0ZM58.54 0.65L58.54 0.65Q55.52 0.65 53.52-0.41 51.52-1.48 50.53-3.2 49.54-4.93 49.54-6.88L49.54-6.88Q49.54-9.25 50.76-10.79 51.97-12.33 54.12-13.08 56.27-13.83 59.07-13.83L59.07-13.83Q60.99-13.83 62.82-13.48 64.64-13.13 66.42-12.55L66.42-12.55 66.42-9.68Q64.97-10.2 63.21-10.51 61.44-10.83 59.92-10.83L59.92-10.83Q57.64-10.83 56.12-9.93 54.59-9.03 54.59-6.88L54.59-6.88Q54.59-5.3 55.79-4.16 56.99-3.03 59.59-3.03L59.59-3.03Q61.49-3.03 62.94-3.89 64.39-4.75 65.19-6.05 65.99-7.35 65.99-8.65L65.99-8.65 67.14-8.65Q67.14-6.15 66.13-4.04 65.12-1.93 63.19-0.64 61.27 0.65 58.54 0.65ZM135.91 0L131.14 0 131.14-14.1Q131.14-17.23 129.65-18.84 128.16-20.45 125.66-20.45L125.66-20.45Q122.66-20.45 121.03-18.1 119.39-15.75 119.39-11.35L119.39-11.35 117.31-11.35Q117.31-14.83 117.99-17.35 118.66-19.88 119.93-21.5 121.19-23.13 122.95-23.91 124.71-24.7 126.89-24.7L126.89-24.7Q129.79-24.7 131.8-23.4 133.81-22.1 134.86-19.71 135.91-17.32 135.91-14.1L135.91-14.1 135.91 0ZM102.56 0L97.81 0 97.81-24.05 101.94-24.05 102.46-19.53Q103.61-22.05 105.63-23.38 107.64-24.7 110.36-24.7L110.36-24.7Q113.26-24.7 115.28-23.4 117.29-22.1 118.34-19.71 119.39-17.32 119.39-14.1L119.39-14.1 119.39 0 114.66 0 114.66-14.1Q114.66-17.23 113.18-18.84 111.69-20.45 109.16-20.45L109.16-20.45Q107.16-20.45 105.68-19.36 104.19-18.28 103.38-16.19 102.56-14.1 102.56-11.1L102.56-11.1 102.56 0ZM165.66-29.18L165.66-29.18Q164.23-29.18 163.42-29.96 162.61-30.75 162.61-32.1L162.61-32.1Q162.61-33.4 163.42-34.16 164.23-34.93 165.66-34.93L165.66-34.93Q167.06-34.93 167.87-34.16 168.68-33.4 168.68-32.1L168.68-32.1Q168.68-30.75 167.87-29.96 167.06-29.18 165.66-29.18ZM168.03 0L163.28 0 163.28-24.13 168.03-24.13 168.03 0ZM218.08 0L213.35 0 213.35-14.1Q213.35-17.23 211.87-18.84 210.38-20.45 207.85-20.45L207.85-20.45Q205.85-20.45 204.37-19.36 202.88-18.28 202.07-16.19 201.25-14.1 201.25-11.1L201.25-11.1 199.55-11.1Q199.55-15.53 200.69-18.55 201.83-21.58 203.95-23.14 206.08-24.7 209.05-24.7L209.05-24.7Q211.95-24.7 213.97-23.4 215.98-22.1 217.03-19.71 218.08-17.32 218.08-14.1L218.08-14.1 218.08 0ZM201.25 0L196.5 0 196.5-24.05 200.63-24.05 201.25-18.85 201.25 0ZM254 12.4L254 12.4Q250.1 12.4 247.29 11.33 244.47 10.25 242.95 8.45 241.42 6.65 241.42 4.53L241.42 4.53Q241.42 1.83 243.4 0.39 245.37-1.05 248.42-1.05L248.42-1.05 251.5 0.4Q248.9 0.4 247.49 1.45 246.07 2.5 246.07 4.3L246.07 4.3Q246.07 6.18 248.12 7.39 250.17 8.6 254 8.6L254 8.6Q256.77 8.6 258.87 7.79 260.97 6.98 262.12 5.66 263.27 4.35 263.27 2.85L263.27 2.85Q263.27 1.83 262.54 1.11 261.8 0.4 260.3 0.4L260.3 0.4 251.5 0.4Q249.05 0.4 247.19-0.36 245.32-1.13 244.27-2.38 243.22-3.63 243.22-5.15L243.22-5.15Q243.22-6.65 244.07-7.74 244.92-8.83 246.32-9.39 247.72-9.95 249.4-9.95L249.4-9.95 250.47-8.3Q249.75-8.3 249.02-7.99 248.3-7.68 247.82-7.05 247.35-6.43 247.35-5.5L247.35-5.5Q247.35-4.42 248.26-3.71 249.17-3 251.5-3L251.5-3 260.3-3Q263.9-3 265.95-1.58 268-0.15 268 2.58L268 2.58Q268 5.05 266.3 7.3 264.6 9.55 261.46 10.98 258.32 12.4 254 12.4ZM254.52-7.23L254.52-7.23Q251.72-7.23 249.44-8.31 247.15-9.4 245.8-11.36 244.45-13.33 244.45-15.95L244.45-15.95Q244.45-18.6 245.8-20.56 247.15-22.53 249.44-23.61 251.72-24.7 254.52-24.7L254.52-24.7Q257.25-24.7 259.51-23.61 261.77-22.53 263.14-20.56 264.5-18.6 264.5-15.95L264.5-15.95Q264.5-13.33 263.14-11.36 261.77-9.4 259.51-8.31 257.25-7.23 254.52-7.23ZM254.52-10.58L254.52-10.58Q257.1-10.58 258.46-12.11 259.82-13.65 259.82-15.95L259.82-15.95Q259.82-18.35 258.46-19.83 257.1-21.3 254.52-21.3L254.52-21.3Q252-21.3 250.59-19.83 249.17-18.35 249.17-15.95L249.17-15.95Q249.17-13.65 250.59-12.11 252-10.58 254.52-10.58ZM262.7-20.85L262.7-20.85 260.47-21.93Q260.47-24.08 261.37-25.68 262.27-27.28 263.87-28.18 265.47-29.08 267.55-29.08L267.55-29.08 267.25-24.45Q265.02-24.45 263.86-23.58 262.7-22.7 262.7-20.85ZM328.16 0L323.39 0 323.39-27.43Q323.39-29.93 324.35-31.49 325.31-33.05 326.91-33.8 328.51-34.55 330.44-34.55L330.44-34.55Q331.54-34.55 332.7-34.4 333.86-34.25 334.99-33.95L334.99-33.95 334.09-30.25Q333.39-30.5 332.67-30.65 331.96-30.8 331.31-30.8L331.31-30.8Q330.54-30.8 329.81-30.51 329.09-30.23 328.62-29.48 328.16-28.73 328.16-27.35L328.16-27.35 328.16 0ZM332.89-20.83L319.61-20.83 319.61-24.05 332.89-24.05 332.89-20.83ZM366.78 0.65L366.78 0.65Q363.51 0.65 360.92-0.78 358.33-2.2 356.83-5.03 355.33-7.85 355.33-12L355.33-12Q355.33-16.23 356.83-19.04 358.33-21.85 360.92-23.28 363.51-24.7 366.78-24.7L366.78-24.7Q370.01-24.7 372.58-23.28 375.16-21.85 376.64-19.04 378.13-16.23 378.13-12L378.13-12Q378.13-7.85 376.64-5.03 375.16-2.2 372.58-0.78 370.01 0.65 366.78 0.65ZM366.63-3.5L366.63-3.5Q368.71-3.5 370.22-4.5 371.73-5.5 372.54-7.41 373.36-9.33 373.36-12L373.36-12Q373.36-16.1 371.69-18.35 370.03-20.6 366.91-20.6L366.91-20.6Q364.81-20.6 363.29-19.59 361.78-18.57 360.97-16.66 360.16-14.75 360.16-12L360.16-12Q360.16-7.98 361.83-5.74 363.51-3.5 366.63-3.5ZM408.28 0L403.53 0 403.53-24.13 408.28-24.13 408.28 0ZM408.28-10.75L406.98-10.75Q406.98-15.38 407.94-18.44 408.9-21.5 410.64-23 412.38-24.5 414.73-24.5L414.73-24.5Q415.43-24.5 416.04-24.4 416.65-24.3 417.25-24.13L417.25-24.13 417.08-19.4Q416.4-19.58 415.61-19.71 414.83-19.85 414.18-19.85L414.18-19.85Q412.13-19.85 410.83-18.76 409.53-17.68 408.9-15.64 408.28-13.6 408.28-10.75L408.28-10.75ZM479.39 12.4L479.39 12.4Q475.49 12.4 472.68 11.33 469.87 10.25 468.34 8.45 466.82 6.65 466.82 4.53L466.82 4.53Q466.82 1.83 468.79 0.39 470.77-1.05 473.82-1.05L473.82-1.05 476.89 0.4Q474.29 0.4 472.88 1.45 471.47 2.5 471.47 4.3L471.47 4.3Q471.47 6.18 473.52 7.39 475.57 8.6 479.39 8.6L479.39 8.6Q482.17 8.6 484.27 7.79 486.37 6.98 487.52 5.66 488.67 4.35 488.67 2.85L488.67 2.85Q488.67 1.83 487.93 1.11 487.19 0.4 485.69 0.4L485.69 0.4 476.89 0.4Q474.44 0.4 472.58-0.36 470.72-1.13 469.67-2.38 468.62-3.63 468.62-5.15L468.62-5.15Q468.62-6.65 469.47-7.74 470.32-8.83 471.72-9.39 473.12-9.95 474.79-9.95L474.79-9.95 475.87-8.3Q475.14-8.3 474.42-7.99 473.69-7.68 473.22-7.05 472.74-6.43 472.74-5.5L472.74-5.5Q472.74-4.42 473.65-3.71 474.57-3 476.89-3L476.89-3 485.69-3Q489.29-3 491.34-1.58 493.39-0.15 493.39 2.58L493.39 2.58Q493.39 5.05 491.69 7.3 489.99 9.55 486.85 10.98 483.72 12.4 479.39 12.4ZM479.92-7.23L479.92-7.23Q477.12-7.23 474.83-8.31 472.54-9.4 471.19-11.36 469.84-13.33 469.84-15.95L469.84-15.95Q469.84-18.6 471.19-20.56 472.54-22.53 474.83-23.61 477.12-24.7 479.92-24.7L479.92-24.7Q482.64-24.7 484.9-23.61 487.17-22.53 488.53-20.56 489.89-18.6 489.89-15.95L489.89-15.95Q489.89-13.33 488.53-11.36 487.17-9.4 484.9-8.31 482.64-7.23 479.92-7.23ZM479.92-10.58L479.92-10.58Q482.49-10.58 483.85-12.11 485.22-13.65 485.22-15.95L485.22-15.95Q485.22-18.35 483.85-19.83 482.49-21.3 479.92-21.3L479.92-21.3Q477.39-21.3 475.98-19.83 474.57-18.35 474.57-15.95L474.57-15.95Q474.57-13.65 475.98-12.11 477.39-10.58 479.92-10.58ZM488.09-20.85L488.09-20.85 485.87-21.93Q485.87-24.08 486.77-25.68 487.67-27.28 489.27-28.18 490.87-29.08 492.94-29.08L492.94-29.08 492.64-24.45Q490.42-24.45 489.25-23.58 488.09-22.7 488.09-20.85ZM536.41 0L532.26 0 531.66-5.53 531.66-15.55Q531.66-18.5 530.44-19.84 529.21-21.18 526.56-21.18L526.56-21.18Q525.06-21.18 523.9-20.74 522.74-20.3 522.07-19.43 521.41-18.55 521.41-17.23L521.41-17.23 516.16-17.23Q516.16-19.88 517.46-21.53 518.76-23.18 521.1-23.94 523.44-24.7 526.56-24.7L526.56-24.7Q529.49-24.7 531.71-23.74 533.94-22.78 535.17-20.73 536.41-18.68 536.41-15.43L536.41-15.43 536.41 0ZM524.21 0.65L524.21 0.65Q521.19 0.65 519.19-0.41 517.19-1.48 516.2-3.2 515.21-4.93 515.21-6.88L515.21-6.88Q515.21-9.25 516.42-10.79 517.64-12.33 519.79-13.08 521.94-13.83 524.74-13.83L524.74-13.83Q526.66-13.83 528.49-13.48 530.31-13.13 532.09-12.55L532.09-12.55 532.09-9.68Q530.64-10.2 528.87-10.51 527.11-10.83 525.59-10.83L525.59-10.83Q523.31-10.83 521.79-9.93 520.26-9.03 520.26-6.88L520.26-6.88Q520.26-5.3 521.46-4.16 522.66-3.03 525.26-3.03L525.26-3.03Q527.16-3.03 528.61-3.89 530.06-4.75 530.86-6.05 531.66-7.35 531.66-8.65L531.66-8.65 532.81-8.65Q532.81-6.15 531.8-4.04 530.79-1.93 528.86-0.64 526.94 0.65 524.21 0.65ZM601.58 0L596.8 0 596.8-14.1Q596.8-17.23 595.32-18.84 593.83-20.45 591.33-20.45L591.33-20.45Q588.33-20.45 586.69-18.1 585.05-15.75 585.05-11.35L585.05-11.35 582.98-11.35Q582.98-14.83 583.65-17.35 584.33-19.88 585.59-21.5 586.85-23.13 588.62-23.91 590.38-24.7 592.55-24.7L592.55-24.7Q595.45-24.7 597.47-23.4 599.48-22.1 600.53-19.71 601.58-17.32 601.58-14.1L601.58-14.1 601.58 0ZM568.23 0L563.48 0 563.48-24.05 567.6-24.05 568.13-19.53Q569.28-22.05 571.29-23.38 573.3-24.7 576.03-24.7L576.03-24.7Q578.93-24.7 580.94-23.4 582.95-22.1 584-19.71 585.05-17.32 585.05-14.1L585.05-14.1 585.05 0 580.33 0 580.33-14.1Q580.33-17.23 578.84-18.84 577.35-20.45 574.83-20.45L574.83-20.45Q572.83-20.45 571.34-19.36 569.85-18.28 569.04-16.19 568.23-14.1 568.23-11.1L568.23-11.1 568.23 0ZM637.2 0.65L637.2 0.65Q634.1 0.65 631.6-0.95 629.1-2.55 627.64-5.4 626.17-8.25 626.17-12L626.17-12Q626.17-15.98 627.62-18.81 629.07-21.65 631.57-23.18 634.07-24.7 637.2-24.7L637.2-24.7Q640-24.7 642-23.56 644-22.43 645.22-20.51 646.45-18.6 646.91-16.18 647.37-13.75 647.07-11.18L647.07-11.18 629.97-11.18 629.97-13.93 643.82-13.93 642.67-13.18Q642.75-14.53 642.54-15.88 642.32-17.23 641.72-18.36 641.12-19.5 640.04-20.19 638.95-20.88 637.27-20.88L637.27-20.88Q635.17-20.88 633.76-19.83 632.35-18.78 631.62-17.01 630.9-15.25 630.9-13.15L630.9-13.15 630.9-11.23Q630.9-8.9 631.6-7.1 632.3-5.3 633.69-4.26 635.07-3.23 637.2-3.23L637.2-3.23Q639.27-3.23 640.64-4.2 642-5.18 642.32-7.13L642.32-7.13 647.17-7.13Q646.8-4.78 645.45-3.03 644.1-1.28 641.99-0.31 639.87 0.65 637.2 0.65ZM677.39 0L672.64 0 672.64-24.13 677.39-24.13 677.39 0ZM677.39-10.75L676.09-10.75Q676.09-15.38 677.06-18.44 678.02-21.5 679.76-23 681.49-24.5 683.84-24.5L683.84-24.5Q684.54-24.5 685.16-24.4 685.77-24.3 686.37-24.13L686.37-24.13 686.19-19.4Q685.52-19.58 684.73-19.71 683.94-19.85 683.29-19.85L683.29-19.85Q681.24-19.85 679.94-18.76 678.64-17.68 678.02-15.64 677.39-13.6 677.39-10.75L677.39-10.75ZM718.21 0.65L718.21 0.65Q714.71 0.65 712.31-0.34 709.91-1.33 708.65-3.09 707.39-4.85 707.34-7.23L707.34-7.23 711.81-7.23Q711.91-5.15 713.48-4.15 715.04-3.15 717.71-3.15L717.71-3.15Q719.14-3.15 720.3-3.6 721.46-4.05 722.15-4.83 722.84-5.6 722.84-6.58L722.84-6.58Q722.84-7.8 721.94-8.51 721.04-9.22 719.04-9.78L719.04-9.78 714.11-11.45Q711.16-12.45 709.59-14.11 708.01-15.78 708.01-18.1L708.01-18.1Q708.01-21.08 710.66-22.89 713.31-24.7 717.69-24.7L717.69-24.7Q722.21-24.7 724.68-22.79 727.14-20.88 727.24-18L727.24-18 722.66-18Q722.49-19.43 721.25-20.19 720.01-20.95 717.69-20.95L717.69-20.95Q715.51-20.95 714.28-20 713.04-19.05 713.04-17.85L713.04-17.85Q713.04-15.7 716.74-14.65L716.74-14.65 721.91-12.83Q724.86-11.88 726.46-10.38 728.06-8.88 728.06-6.58L728.06-6.58Q728.06-4.73 726.84-3.08 725.61-1.43 723.4-0.39 721.19 0.65 718.21 0.65Z" opacity="1" transform="matrix(1,0,0,1,0,0)" fill="#ffffff" class="undefined-text-1" data-fill-palette-color="secondary" id="text-1"></path></svg></g></svg></g></svg></g></svg></g><g></g></svg></g></svg></g></svg></g><g mask="url(#b393451d-a64f-4f43-b19d-f88cb28fc781)"><g transform="matrix(4.063235811354962, 0, 0, 4.063235811354962, 14.912714487456498, 1)"><svg xmlns="http://www.w3.org/2000/svg" xmlns:xlink="http://www.w3.org/1999/xlink" version="1.1" x="0" y="0" viewBox="4.999077320098877 20.56300163269043 90.00082397460938 60.34599304199219" enable-background="new 0 0 100 100" xml:space="preserve" height="60.34599304199219" width="90.00082397460938" class="icon-none" data-fill-palette-color="accent" id="none"><path d="M94.455 44.581c-0.068-0.212-0.112-0.435-0.124-0.66-0.174-2.529-0.657-4.665-1.033-6.007-0.031-0.101-0.085-0.276-0.129-0.458-1.941-7.555-4.847-11.636-4.876-11.676-0.324-0.448-0.503-0.996-0.505-1.55-0.024-0.31-0.435-3.667-7.451-3.667h-4.541c-3.135 0-5.42 0.683-6.606 1.972-0.659 0.714-1.662 1.016-2.593 0.776-3.737-0.938-8.337-1.826-16.643-1.967-8.218 0.141-12.822 1.029-16.56 1.967-0.938 0.239-1.938-0.062-2.593-0.778-1.184-1.288-3.469-1.97-6.602-1.97h-4.548c-7.021 0-7.429 3.352-7.454 3.734-0.046 0.812-0.457 1.55-1.072 2.026-0.808 1.412-2.778 5.218-4.307 11.15-0.828 3.308-1.064 5.381-1.177 6.377-1.538 9.966-0.515 27.87 5.293 34.647 1.394 1.626 2.925 2.412 4.68 2.412 3.635 0 4.001-0.918 5.603-6.455 0.391-1.348 0.825-2.852 1.387-4.497 3.035-8.931 7.791-9.537 18.22-10.863l1.379-0.178c2.703-0.269 4.998-0.403 7.747-0.449 2.847 0.049 5.139 0.181 7.759 0.441l1.455 0.186c10.427 1.326 15.188 1.933 18.223 10.863 0.562 1.646 0.996 3.154 1.39 4.507 1.602 5.527 1.967 6.445 5.603 6.445 1.755 0 3.286-0.786 4.678-2.412C94.753 71.856 95.847 54.482 94.455 44.581zM25.713 55.788c-6.97 0-12.625-5.654-12.625-12.625 0-6.97 5.654-12.625 12.625-12.625 6.973 0 12.622 5.655 12.622 12.625C38.335 50.134 32.686 55.788 25.713 55.788zM74.282 30.537c2.505 0 4.544 2.032 4.544 4.544 0 2.511-2.039 4.543-4.544 4.543-2.507 0-4.548-2.032-4.548-4.543C69.734 32.569 71.775 30.537 74.282 30.537zM66.201 47.706c-2.518 0-4.549-2.03-4.549-4.543 0-2.51 2.031-4.541 4.549-4.541 2.505 0 4.539 2.031 4.539 4.541C70.74 45.676 68.706 47.706 66.201 47.706zM74.282 55.788c-2.507 0-4.548-2.038-4.548-4.547 0-2.507 2.041-4.544 4.548-4.544 2.505 0 4.544 2.037 4.544 4.544C78.826 53.75 76.787 55.788 74.282 55.788zM82.355 47.706c-2.504 0-4.541-2.03-4.541-4.543 0-2.51 2.037-4.541 4.541-4.541 2.518 0 4.551 2.031 4.551 4.541C86.906 45.676 84.873 47.706 82.355 47.706z" fill="#ffffff" data-fill-palette-color="accent"></path><path d="M30.981 40.338h-2.446v-2.445c0-1.56-1.265-2.822-2.822-2.822-1.555 0-2.822 1.262-2.822 2.822v2.445h-2.449c-1.56 0-2.825 1.267-2.825 2.825 0 1.562 1.265 2.822 2.825 2.822h2.449v2.446c0 1.56 1.267 2.824 2.822 2.824 1.558 0 2.822-1.264 2.822-2.824v-2.446h2.446c1.558 0 2.825-1.261 2.825-2.822C33.806 41.605 32.539 40.338 30.981 40.338z" fill="#ffffff" data-fill-palette-color="accent"></path></svg></g></g></svg></g><defs><mask id="5c551440-b31f-46d7-8d48-ce0b95060516"><rect width="640" height="400" fill="white"></rect><rect width="348.05760000000004" height="52.4615503689505" fill="black" x="145.97119999999998" y="173.76922481552475" id="transform-me" transform="matrix(1,0,0,1,-122.24000000000001,-76.4)"></rect></mask><mask id="7a5d0b7b-d70d-4f15-ac96-63c7a1e1a181"><rect width="640" height="400" fill="white"></rect><rect width="348.05760000000004" height="52.4615503689505" fill="black" x="145.97119999999998" y="173.76922481552475" id="transform-me" transform="matrix(1,0,0,1,-122.24000000000001,-76.4)"></rect></mask><mask id="3fe85e0d-4323-42ee-a833-6006f2a68073"><rect width="640" height="400" fill="white"></rect><rect width="348.05760000000004" height="52.4615503689505" fill="black" x="145.97119999999998" y="173.76922481552475" id="transform-me" transform="matrix(1,0,0,1,-122.24000000000001,-76.4)"></rect></mask><mask id="4ccfc236-4b31-4bb4-a634-fd1d99978682"><rect width="640" height="400" fill="white"></rect><rect width="348.05760000000004" height="52.4615503689505" fill="black" x="145.97119999999998" y="173.76922481552475" id="transform-me" transform="matrix(1,0,0,1,-122.24000000000001,-76.4)"></rect></mask><mask id="3d3f20f9-6721-44ff-9ba4-744d7d3ba269"><rect width="640" height="400" fill="white"></rect><rect width="348.05760000000004" height="52.4615503689505" fill="black" x="145.97119999999998" y="173.76922481552475" id="transform-me" transform="matrix(1,0,0,1,-122.24000000000001,-76.4)"></rect></mask><mask id="d6e8ca0a-bcc7-461d-9eaf-dd31e9bb2145"><rect width="640" height="400" fill="white"></rect><rect width="348.05760000000004" height="52.4615503689505" fill="black" x="145.97119999999998" y="173.76922481552475" id="transform-me" transform="matrix(1,0,0,1,-122.24000000000001,-76.4)"></rect></mask><mask id="bc9cb594-4c8d-4e31-97c9-1351ecd22233"><rect width="640" height="400" fill="white"></rect><rect width="348.05760000000004" height="52.4615503689505" fill="black" x="145.97119999999998" y="173.76922481552475" id="transform-me" transform="matrix(1,0,0,1,-122.24000000000001,-76.4)"></rect></mask><mask id="2bf0d00d-a4cf-4391-a4a5-cf9929e20527"><rect width="640" height="400" fill="white"></rect><rect width="348.05760000000004" height="52.4615503689505" fill="black" x="145.97119999999998" y="173.76922481552475" id="transform-me" transform="matrix(1,0,0,1,-122.24000000000001,-76.4)"></rect></mask><mask id="969f4d20-8c82-4082-9ea8-138911a3b30a"><rect width="640" height="400" fill="white"></rect><rect width="348.05760000000004" height="52.4615503689505" fill="black" x="145.97119999999998" y="173.76922481552475" id="transform-me" transform="matrix(1,0,0,1,-122.24000000000001,-76.4)"></rect></mask><mask id="88e659e4-6014-4175-ad6e-d36eb12519f6"><rect width="640" height="400" fill="white"></rect><rect width="348.05760000000004" height="52.4615503689505" fill="black" x="145.97119999999998" y="173.76922481552475" id="transform-me" transform="matrix(1,0,0,1,-122.24000000000001,-76.4)"></rect></mask><mask id="6b76e92e-b2b7-4293-9be6-d7f1e7951087"><rect width="640" height="400" fill="white"></rect><rect width="348.05760000000004" height="51.820211122386304" fill="black" x="145.97119999999998" y="174.08989443880685" id="transform-me" transform="matrix(1,0,0,1,-122.24000000000001,-76.4)"></rect></mask><mask id="d0207438-89cd-45c0-9b8b-5a313096b0a3"><rect width="640" height="400" fill="white"></rect><rect width="348.05760000000004" height="64.28044006916804" fill="black" x="145.97119999999998" y="167.85977996541598" id="transform-me" transform="matrix(1,0,0,1,-122.24000000000001,-76.4)"></rect></mask><mask id="947060da-72b0-45bf-b9f8-5727614d0355"><rect width="640" height="400" fill="white"></rect><rect width="348.05760000000004" height="51.820211122386304" fill="black" x="145.97119999999998" y="174.08989443880685" id="transform-me" transform="matrix(1,0,0,1,-122.24000000000001,-76.4)"></rect></mask><mask id="28fdf090-f9b1-410b-a699-0c81f5bb786c"><rect width="640" height="400" fill="white"></rect><rect width="348.05760000000004" height="64.28044006916804" fill="black" x="145.97119999999998" y="167.85977996541598" id="transform-me" transform="matrix(1,0,0,1,-122.24000000000001,-76.4)"></rect></mask><mask id="f34f32bd-f163-4c75-8e98-75230fab49b7"><rect width="640" height="400" fill="white"></rect><rect width="348.05760000000004" height="64.28044006916804" fill="black" x="145.97119999999998" y="167.85977996541598" id="transform-me" transform="matrix(1,0,0,1,-122.24000000000001,-76.4)"></rect></mask><mask id="8d604b58-59c0-4ea5-89f6-f7fe319c8079"><rect width="640" height="400" fill="white"></rect><rect width="348.05760000000004" height="64.28044006916804" fill="black" x="145.97119999999998" y="167.85977996541598" id="transform-me" transform="matrix(1,0,0,1,-122.24000000000001,-76.4)"></rect></mask><mask id="de7792ce-88fe-4a95-9c0f-0f3b4762ae96"><rect width="640" height="400" fill="white"></rect><rect width="348.05760000000004" height="64.28044006916804" fill="black" x="145.97119999999998" y="167.85977996541598" id="transform-me" transform="matrix(1,0,0,1,-122.24000000000001,-76.4)"></rect></mask><mask id="89a7271e-a0ed-4653-8c57-c00f21fa2ffc"><rect width="640" height="400" fill="white"></rect><rect width="348.05760000000004" height="64.28044006916804" fill="black" x="145.97119999999998" y="167.85977996541598" id="transform-me" transform="matrix(1,0,0,1,-122.24000000000001,-76.4)"></rect></mask><mask id="6038251a-4ac3-4ad1-adfa-c61945f3c79f"><rect width="640" height="400" fill="white"></rect><rect width="348.05760000000004" height="64.28044006916804" fill="black" x="145.97119999999998" y="167.85977996541598" id="transform-me" transform="matrix(1,0,0,1,-122.24000000000001,-76.4)"></rect></mask><mask id="8bf43958-9ee8-4c66-9a86-cbc89c2fb532"><rect width="640" height="400" fill="white"></rect><rect width="348.05760000000004" height="64.28044006916804" fill="black" x="145.97119999999998" y="167.85977996541598" id="transform-me" transform="matrix(1,0,0,1,-122.24000000000001,-76.4)"></rect></mask><mask id="5f057bc9-e2ce-4f22-99b1-e0b6ba285e7e"><rect width="640" height="400" fill="white"></rect><rect width="348.05760000000004" height="39.05121629808781" fill="black" x="145.97119999999998" y="180.4743918509561" id="transform-me" transform="matrix(1,0,0,1,-122.24000000000001,-76.4)"></rect></mask><mask id="1141204a-a2bb-4e17-89e1-03cd9da52e27"><rect width="640" height="400" fill="white"></rect><rect width="348.05760000000004" height="57.6295645584361" fill="black" x="145.97119999999998" y="171.18521772078196" id="transform-me" transform="matrix(1,0,0,1,-122.24000000000001,-76.4)"></rect></mask><mask id="0d09df58-9da8-4c49-b778-3c2d2d5fb005"><rect width="640" height="400" fill="white"></rect><rect width="348.05760000000004" height="56.264299598926925" fill="black" x="145.97119999999998" y="171.86785020053654" id="transform-me" transform="matrix(1,0,0,1,-122.24000000000001,-76.4)"></rect></mask><mask id="aac3c486-2596-489d-8392-85aed449d84f"><rect width="640" height="400" fill="white"></rect><rect width="348.05760000000004" height="48.90525476361995" fill="black" x="145.97119999999998" y="175.54737261819002" id="transform-me" transform="matrix(1,0,0,1,-122.24000000000001,-76.4)"></rect></mask><mask id="2aed9797-4073-4ec3-a20e-de175e43b864"><rect width="640" height="400" fill="white"></rect><rect width="348.05760000000004" height="49.071629942796946" fill="black" x="145.97119999999998" y="175.46418502860152" id="transform-me" transform="matrix(1,0,0,1,-122.24000000000001,-76.4)"></rect></mask><mask id="649e02f0-d6e6-4864-bcf8-4d96dbede4b8"><rect width="640" height="400" fill="white"></rect><rect width="348.05760000000004" height="49.071629942796946" fill="black" x="145.97119999999998" y="175.46418502860152" id="transform-me" transform="matrix(1,0,0,1,-122.24000000000001,-76.4)"></rect></mask><mask id="d957d413-a3ce-4f4e-9d30-8028cf639462"><rect width="640" height="400" fill="white"></rect><rect width="348.05760000000004" height="49.071629942796946" fill="black" x="145.97119999999998" y="175.46418502860152" id="transform-me" transform="matrix(1,0,0,1,-122.24000000000001,-76.4)"></rect></mask><mask id="ab47cf37-4470-450e-867f-d0e6b70edead"><rect width="640" height="400" fill="white"></rect><rect width="348.05760000000004" height="49.071629942796946" fill="black" x="145.97119999999998" y="175.46418502860152" id="transform-me" transform="matrix(1,0,0,1,-122.24000000000001,-76.4)"></rect></mask><mask id="2a63d007-7230-4e42-a549-fe05797b8403"><rect width="640" height="400" fill="white"></rect><rect width="348.05760000000004" height="49.071629942796946" fill="black" x="145.97119999999998" y="175.46418502860152" id="transform-me" transform="matrix(1,0,0,1,-122.24000000000001,-76.4)"></rect></mask><mask id="56b92723-daf1-40d3-97b9-ed9fafa64dd8"><rect width="640" height="400" fill="white"></rect><rect width="348.05760000000004" height="49.071629942796946" fill="black" x="145.97119999999998" y="175.46418502860152" id="transform-me" transform="matrix(1,0,0,1,-122.24000000000001,-76.4)"></rect></mask><mask id="c08ce64e-45b5-4b33-b02f-5655906c51de"><rect width="640" height="400" fill="white"></rect><rect width="348.05760000000004" height="49.071629942796946" fill="black" x="145.97119999999998" y="175.46418502860152" id="transform-me" transform="matrix(1,0,0,1,-122.24000000000001,-76.4)"></rect></mask><mask id="fc255cfc-74ec-4b2e-82b9-78c0ca7c4b37"><rect width="640" height="400" fill="white"></rect><rect width="348.05760000000004" height="49.071629942796946" fill="black" x="145.97119999999998" y="175.46418502860152" id="transform-me" transform="matrix(1,0,0,1,-122.24000000000001,-76.4)"></rect></mask><mask id="b8f2be34-708a-4cad-98a3-81fed4149202"><rect width="640" height="400" fill="white"></rect><rect width="348.05760000000004" height="49.071629942796946" fill="black" x="145.97119999999998" y="175.46418502860152" id="transform-me" transform="matrix(1,0,0,1,-122.24000000000001,-76.4)"></rect></mask><mask id="40790e3e-ade9-408a-9b64-8b259db38257"><rect width="640" height="400" fill="white"></rect><rect width="348.05760000000004" height="49.071629942796946" fill="black" x="145.97119999999998" y="175.46418502860152" id="transform-me" transform="matrix(1,0,0,1,-122.24000000000001,-76.4)"></rect></mask><mask id="e531c096-fc43-43de-8c71-6a1a34d495d0"><rect width="640" height="400" fill="white"></rect><rect width="348.05760000000004" height="49.071629942796946" fill="black" x="145.97119999999998" y="175.46418502860152" id="transform-me" transform="matrix(1,0,0,1,-122.24000000000001,-76.4)"></rect></mask><mask id="50bf8e7b-f82f-48f4-bcd6-6146c66ae14b"><rect width="640" height="400" fill="white"></rect><rect width="348.05760000000004" height="77.54076996028444" fill="black" x="145.97119999999998" y="161.2296150198578" id="transform-me" transform="matrix(1,0,0,1,-122.24000000000001,-76.4)"></rect></mask><mask id="fce4c95a-145e-42ac-9f4e-aa8a0e40da77"><rect width="640" height="400" fill="white"></rect><rect width="348.05760000000004" height="77.54076996028444" fill="black" x="145.97119999999998" y="161.2296150198578" id="transform-me" transform="matrix(1,0,0,1,-122.24000000000001,-76.4)"></rect></mask><mask id="7c12f9cf-9492-49de-af1d-3676eee4fcc4"><rect width="640" height="400" fill="white"></rect><rect width="348.05760000000004" height="76.81598042552025" fill="black" x="145.97119999999998" y="161.59200978723987" id="transform-me" transform="matrix(1,0,0,1,-122.24000000000001,-76.4)"></rect></mask><mask id="04bb0deb-cbfc-4574-997a-63c481811af1"><rect width="640" height="400" fill="white"></rect><rect width="348.05760000000004" height="77.54076996028444" fill="black" x="145.97119999999998" y="161.2296150198578" id="transform-me" transform="matrix(1,0,0,1,-122.24000000000001,-76.4)"></rect></mask><mask id="0ccd3557-7647-4ccd-acc8-a20adf36bcbf"><rect width="640" height="400" fill="white"></rect><rect width="348.05760000000004" height="77.54076996028444" fill="black" x="145.97119999999998" y="161.2296150198578" id="transform-me" transform="matrix(1,0,0,1,-122.24000000000001,-76.4)"></rect></mask><mask id="d85fcdcc-002e-45f6-872f-707afe92269f"><rect width="640" height="400" fill="white"></rect><rect width="348.05760000000004" height="77.54076996028444" fill="black" x="145.97119999999998" y="161.2296150198578" id="transform-me" transform="matrix(1,0,0,1,-122.24000000000001,-76.4)"></rect></mask><mask id="16ebacb3-273b-4318-9904-f7f389e482f6"><rect width="640" height="400" fill="white"></rect><rect width="348.05760000000004" height="77.54076996028444" fill="black" x="145.97119999999998" y="161.2296150198578" id="transform-me" transform="matrix(1,0,0,1,-122.24000000000001,-76.4)"></rect></mask><mask id="b393451d-a64f-4f43-b19d-f88cb28fc781"><rect width="640" height="400" fill="white"></rect><rect width="348.05760000000004" height="77.54076996028444" fill="black" x="145.97119999999998" y="161.2296150198578" id="transform-me" transform="matrix(1,0,0,1,-122.24000000000001,-76.4)"></rect></mask></defs></svg><rect width="395.52" height="247.2" fill="none" stroke="none" visibility="hidden"></rect></g></svg></g></svg>